<svg width="680" height="300" viewBox="0 0 680 300" fill="none" xmlns="http://www.w3.org/2000/svg">
<g clip-path="url(#clip0_2379_2190)">
<path d="M95.573 118.934C93.0461 124.895 88.4885 129.545 81.9004 132.887C75.3123 136.228 67.6863 137.899 59.0224 137.899C48.0121 137.899 38.7617 135.957 31.2711 132.074C23.7804 128.191 17.7338 123.089 13.1311 116.767C8.52847 110.446 5.18928 103.131 3.11357 94.8224C1.03786 86.5142 0 78.0253 0 69.3558C0 59.0608 1.53422 49.6237 4.60267 41.0446C7.67111 32.4654 11.8225 25.1505 17.0569 19.0999C22.2913 13.0494 28.4282 8.3534 35.4676 5.01204C42.507 1.67068 50.0878 0 58.2102 0C74.8159 0 87.2702 6.68272 95.573 20.0482V3.52197H130.77V138.17C130.77 148.284 129.055 157.179 125.626 164.855C122.196 172.532 117.503 178.943 111.547 184.091C105.591 189.238 98.5512 193.167 90.4289 195.876C82.3065 198.585 73.6427 199.94 64.4373 199.94C55.232 199.94 46.6584 198.63 38.7165 196.011C30.7747 193.393 23.9609 189.69 18.2753 184.904C12.5896 180.117 8.12235 174.293 4.87341 167.429C1.62447 160.566 0 152.8 0 144.13H32.7602C32.7602 152.258 35.4225 158.534 40.7471 162.959C46.0718 167.384 53.1563 169.597 62.0006 169.597C71.3865 169.597 79.3283 167.023 85.8262 161.875C92.3241 156.728 95.573 149.729 95.573 140.879V118.934ZM66.6033 110.265C75.2671 110.265 82.4419 106.969 88.1275 100.376C93.8132 93.7839 96.656 84.7983 96.656 73.4196C96.656 44.8826 86.6384 30.6141 66.6033 30.6141C46.5682 30.6141 36.5506 44.1601 36.5506 71.2523C36.5506 83.1728 39.3934 92.655 45.0791 99.699C50.7647 106.743 57.9395 110.265 66.6033 110.265Z" fill="black"/>
<path d="M146.203 136.815V3.52197H179.234V19.5063C182.122 14.991 185.145 11.469 188.304 8.9404C191.463 6.4118 194.712 4.4702 198.051 3.11559C201.39 1.76099 204.774 0.90307 208.204 0.541842C211.633 0.180614 215.153 0 218.763 0H223.365V36.0325C220.117 35.4907 216.868 35.2197 213.619 35.2197C192.14 35.2197 181.4 45.9663 181.4 67.4594V136.815H146.203Z" fill="black"/>
<path d="M290.51 140.337C279.68 140.337 270.024 138.621 261.54 135.19C253.057 131.758 245.882 126.972 240.016 120.831C234.15 114.69 229.683 107.285 226.614 98.6153C223.546 89.9458 222.012 80.4636 222.012 70.1686C222.012 59.8736 223.591 50.1204 226.75 41.4509C229.908 32.7815 234.466 25.3763 240.422 19.2354C246.379 13.0945 253.554 8.3534 261.947 5.01204C270.34 1.67068 279.861 0 290.51 0C301.16 0 310.365 1.67068 318.668 5.01204C326.971 8.3534 334.055 13.0494 339.921 19.0999C345.787 25.1505 350.3 32.5105 353.458 41.18C356.617 49.8495 358.196 59.5123 358.196 70.1686C358.196 80.8248 356.617 90.4425 353.458 99.0217C350.3 107.601 345.787 114.961 339.921 121.102C334.055 127.243 326.925 131.984 318.532 135.325C310.139 138.666 300.799 140.337 290.51 140.337ZM290.51 110.807C311.989 110.807 322.729 97.2607 322.729 70.1686C322.729 43.0765 311.989 29.8013 290.51 29.8013C269.031 29.8013 258.292 43.2571 258.292 70.1686C258.292 97.0801 269.031 110.807 290.51 110.807Z" fill="black"/>
<path d="M471.638 136.815L450.52 59.3317L429.402 136.815H393.393L355.488 3.52197H392.58L414.24 89.133L432.651 3.52197H468.389L489.236 89.133L509.542 3.52197H545.822L507.647 136.815H471.638Z" fill="black"/>
<path d="M302.241 296.478V215.744C302.241 207.616 300.346 201.023 296.556 195.966C292.765 190.909 287.711 188.38 281.394 188.38C275.077 188.38 269.526 191.09 265.285 196.508C261.043 201.927 258.922 208.7 258.922 216.827V296.478H223.725V216.285C223.725 210.867 223.364 206.442 222.642 203.01C221.92 199.579 220.702 196.869 218.987 194.883C217.273 192.896 215.061 191.496 212.354 190.683C209.647 189.871 206.398 189.464 202.607 189.464C188.348 189.464 181.218 198.134 181.218 215.473V296.478H146.021V163.185H179.052V182.691C183.565 173.841 188.98 167.79 195.297 164.539C201.614 161.288 209.195 159.663 218.04 159.663C222.552 159.663 226.568 160.024 230.088 160.747C233.608 161.469 236.766 162.688 239.564 164.404C242.362 166.12 245.024 168.332 247.551 171.042C250.078 173.751 252.605 177.002 255.132 180.795C258.742 173.39 263.525 168.016 269.481 164.675C275.438 161.334 282.657 159.663 291.141 159.663C297.819 159.663 303.956 160.792 309.552 163.049C315.147 165.307 319.93 168.468 323.901 172.532C327.872 176.595 330.986 181.337 333.242 186.755C335.498 192.173 336.626 197.953 336.626 204.094V296.478H302.241Z" fill="black"/>
<path d="M433.554 296.478C432.471 293.046 431.749 289.073 431.388 284.557C427.236 289.253 421.731 293.001 414.872 295.801C408.013 298.6 400.072 300 391.047 300C375.705 300 364.469 296.613 357.339 289.84C350.209 283.067 346.645 274.262 346.645 263.426C346.645 253.853 348.179 246.222 351.247 240.533C354.316 234.843 358.557 230.373 363.972 227.122C369.387 223.871 375.84 221.478 383.33 219.943C390.821 218.408 398.989 217.008 407.833 215.744C416.677 214.479 422.634 212.809 425.702 210.731C428.771 208.654 430.305 205.268 430.305 200.572C430.305 196.237 428.274 192.851 424.213 190.412C420.152 187.974 414.692 186.755 407.833 186.755C399.711 186.755 393.89 188.561 390.37 192.173C386.85 195.786 384.639 200.572 383.737 206.532H350.976C351.157 199.669 352.285 193.347 354.361 187.568C356.436 181.788 359.776 176.821 364.378 172.667C368.981 168.513 374.983 165.307 382.383 163.049C389.783 160.792 398.808 159.663 409.457 159.663C420.107 159.663 428.816 160.837 436.126 163.185C443.436 165.533 449.302 168.919 453.724 173.344C458.146 177.769 461.35 183.278 463.336 189.871C465.321 196.463 466.314 203.913 466.314 212.222V296.478H433.554ZM431.117 231.186C429.312 232.992 426.695 234.437 423.265 235.521C419.836 236.604 414.872 237.778 408.374 239.043C398.267 241.029 391.317 243.558 387.527 246.629C383.737 249.699 381.841 254.124 381.841 259.904C381.841 269.837 387.527 274.804 398.898 274.804C403.411 274.804 407.607 274.037 411.488 272.501C415.369 270.966 418.708 268.889 421.506 266.27C424.303 263.651 426.559 260.581 428.274 257.059C429.989 253.537 430.846 249.789 430.846 245.816L431.117 231.186Z" fill="black"/>
<path d="M481.746 296.478V163.185H514.777V179.169C517.665 174.654 520.688 171.132 523.847 168.603C527.006 166.075 530.255 164.133 533.594 162.778C536.933 161.424 540.317 160.566 543.747 160.205C547.176 159.843 550.696 159.663 554.306 159.663H558.908V195.695C555.66 195.154 552.411 194.883 549.162 194.883C527.682 194.883 516.943 205.629 516.943 227.122V296.478H481.746Z" fill="black"/>
<path d="M644.192 208.7H676.952V246.629C676.952 253.673 675.914 260.4 673.839 266.812C671.763 273.224 668.514 278.913 664.092 283.88C659.67 288.847 654.074 292.775 647.306 295.665C640.537 298.555 632.46 300 623.074 300C613.688 300 605.024 298.555 598.166 295.665C591.307 292.775 585.666 288.892 581.244 284.016C576.822 279.139 573.618 273.45 571.633 266.948C569.647 260.446 568.654 253.582 568.654 246.358V127.152H603.31V163.185H676.952V188.11H603.31V242.836C603.31 251.325 604.889 257.872 608.048 262.477C611.206 267.083 616.396 269.386 623.616 269.386C630.835 269.386 635.844 267.128 639.183 262.613C642.523 258.098 644.192 251.686 644.192 243.378V208.7Z" fill="black"/>
<path d="M639.906 54.8615V55.5388H640.267L639.906 54.8615ZM640.583 35.3552V35.5358L640.764 35.3552H640.583Z" fill="black"/>
<path d="M640.583 35.3552V35.5358L640.764 35.3552H640.583ZM639.906 55.5388H640.267L639.906 54.8615V55.5388Z" fill="black"/>
<path d="M657.46 50.301V55.5388H640.267L639.906 54.8615V50.888L648.976 40.4576H640.583V35.5358L640.764 35.3552H657.189V40.1866L648.164 50.301H657.46Z" fill="black"/>
<path d="M639.275 3.38647C617.254 3.38647 599.295 21.3124 599.295 43.3925C599.295 65.4726 617.254 83.4437 639.275 83.4437C661.296 83.4437 679.3 65.4726 679.3 43.3925C679.3 21.3124 661.341 3.38647 639.275 3.38647ZM639.275 69.8976C624.7 69.8976 612.832 58.0222 612.832 43.3925C612.832 28.7628 624.7 16.9325 639.275 16.9325C653.85 16.9325 665.763 28.8079 665.763 43.3925C665.763 57.9771 653.895 69.8976 639.275 69.8976Z" fill="black"/>
<path d="M640.584 35.5359L633.77 43.0314L639.907 54.8616V55.5389H633.319L629.348 47.3661L627.633 49.1271V55.5389H621.406V28.4016H627.633V41.6316L633.048 35.3553H640.584V35.5359Z" fill="black"/>
</g>
<defs>
<clipPath id="clip0_2379_2190">
<rect width="679.299" height="300" fill="white"/>
</clipPath>
</defs>
</svg>
